<svg width="160" height="29" viewBox="0 0 350 60" xmlns="http://www.w3.org/2000/svg">
  <!-- Remove the <defs> and <filter> -->
  <g>
    <rect x="26" y="25" width="8" height="15" fill="#4461a9"/>
    <rect x="31" y="17" width="6" height="23" fill="#577cd7"/>
    <polygon points="34,9 29,25 39,25" fill="#4461a9"/>
    <rect x="39" y="28" width="6" height="10" fill="#89aef4"/>
    <polygon points="42,21 39,28 45,28" fill="#577cd7"/>
    <rect x="22" y="32" width="4" height="7" fill="#89aef4"/>
    <polygon points="24,28 22,32 26,32" fill="#577cd7"/>
  </g>
  <g>
    <path d="M 10 40 Q 28 10 54 16 Q 60 18 68 35" fill="none" stroke="#ffd700" stroke-width="1.5" stroke-dasharray="4,3"/>
    <circle cx="15" cy="35" r="1.1" fill="#ffd700"/>
    <polygon points="19,28 19.7,29.3 21,29.6 19.7,30 19,31.3 18.3,30 17,29.6 18.3,29.3" fill="#fff"/>
    <circle cx="26" cy="22" r="1.3" fill="#ffd700"/>
    <polygon points="32,15 32.7,16.3 34,16.6 32.7,17 32,18.3 31.3,17 30,16.6 31.3,16.3" fill="#fff"/>
    <circle cx="43" cy="17" r="1.1" fill="#ffd700"/>
    <polygon points="50,18 50.7,19.3 52,19.6 50.7,20 50,21.3 49.3,20 48,19.6 49.3,19.3" fill="#fff"/>
    <circle cx="56" cy="19" r="1.2" fill="#ffd700"/>
    <polygon points="65,29 65.7,30.3 67,30.6 65.7,31 65,32.3 64.3,31 63,30.6 64.3,30.3" fill="#fff"/>
  </g>
  <text x="70" y="40" font-family="Arial, Helvetica, sans-serif" font-size="23" fill="#23287b" letter-spacing="0" style="text-shadow: 0 2px 6px #fff, 0 1px 0 #ccc;">WDW Magic Explorer</text>
</svg>
