<?xml version="1.0" encoding="UTF-8"?>
<svg width="24" height="24" viewBox="0 0 24 24" fill="none"
     xmlns="http://www.w3.org/2000/svg">
  <!-- Calendar outline -->
  <rect x="3" y="5" width="18" height="16" rx="2.5" ry="2.5"
        stroke="currentColor" stroke-width="1.7" fill="none"/>
  <!-- Calendar top bar -->
  <path d="M3 9H21" stroke="currentColor" stroke-width="1.7" stroke-linecap="round"/>
  <!-- Binding rings -->
  <path d="M8 3V7M16 3V7" stroke="currentColor" stroke-width="1.7" stroke-linecap="round"/>
  <!-- Vertical divider -->
  <path d="M12 5V21" stroke="currentColor" stroke-width="1.2" stroke-linecap="round"/>
  <!-- Grey shaded half -->
  <rect x="12" y="5" width="9" height="16" rx="2.5" ry="2.5" fill="black" opacity="0.3"/>
  <!-- Grid -->
  <rect x="3.50" y="9.50" width="3.75" height="3.17" fill="none" stroke="currentColor" stroke-width="0.9"/>
<rect x="7.75" y="9.50" width="3.75" height="3.17" fill="none" stroke="currentColor" stroke-width="0.9"/>
<rect x="12.00" y="9.50" width="3.75" height="3.17" fill="none" stroke="currentColor" stroke-width="0.9"/>
<rect x="16.25" y="9.50" width="3.75" height="3.17" fill="none" stroke="currentColor" stroke-width="0.9"/>
<rect x="3.50" y="13.17" width="3.75" height="3.17" fill="none" stroke="currentColor" stroke-width="0.9"/>
<rect x="7.75" y="13.17" width="3.75" height="3.17" fill="none" stroke="currentColor" stroke-width="0.9"/>
<rect x="12.00" y="13.17" width="3.75" height="3.17" fill="none" stroke="currentColor" stroke-width="0.9"/>
<rect x="16.25" y="13.17" width="3.75" height="3.17" fill="none" stroke="currentColor" stroke-width="0.9"/>
<rect x="3.50" y="16.83" width="3.75" height="3.17" fill="none" stroke="currentColor" stroke-width="0.9"/>
<rect x="7.75" y="16.83" width="3.75" height="3.17" fill="none" stroke="currentColor" stroke-width="0.9"/>
<rect x="12.00" y="16.83" width="3.75" height="3.17" fill="none" stroke="currentColor" stroke-width="0.9"/>
<rect x="16.25" y="16.83" width="3.75" height="3.17" fill="none" stroke="currentColor" stroke-width="0.9"/>

</svg>