<svg width="24" height="24" viewBox="0 0 800 800" xmlns="http://www.w3.org/2000/svg"><g id="Group"><path id="Path" fill="#000000" stroke="none" d="M 617.411194 372.374481 L 182.588806 372.374481 C 122.86274 372.374481 74.274536 323.760498 74.274536 264.008667 C 74.274536 204.301025 122.86274 155.727539 182.588806 155.727539 L 454.365234 155.727539 C 469.624542 155.727539 481.988922 143.359497 481.988922 128.103882 C 481.988922 112.848206 469.624542 100.480164 454.365234 100.480164 L 182.588806 100.480164 C 92.40303 100.480164 19.027185 173.837646 19.027185 264.008667 C 19.027185 354.223907 92.40303 427.621826 182.588806 427.621826 L 617.411194 427.621826 C 677.137268 427.621826 725.725464 476.235809 725.725464 535.991333 C 725.725464 595.698975 677.137268 644.272461 617.411194 644.272461 L 343.288605 644.272461 C 328.03299 644.272461 315.664917 656.640503 315.664917 671.896118 C 315.664917 687.151733 328.03299 699.519775 343.288605 699.519775 L 617.411194 699.519775 C 707.596985 699.519775 780.972839 626.162415 780.972839 535.991333 C 780.972839 445.77243 707.596985 372.374481 617.411194 372.374481 Z"/><path id="path1" fill="#000000" stroke="none" d="M 178.692017 478.814056 C 114.579315 478.814056 62.422134 530.974854 62.422134 595.083923 C 62.422134 694.031921 155.208206 787.959778 159.160248 791.908081 C 164.342438 797.090271 171.366226 800 178.695694 800 C 186.0215 800 193.048965 797.090271 198.231155 791.908081 C 202.17952 787.956055 294.961914 694.031921 294.961914 595.083923 C 294.954529 530.974854 242.801025 478.814056 178.692017 478.814056 Z M 178.692017 730.579834 C 154.836227 701.133057 117.669479 646.924316 117.669479 595.083923 C 117.669479 561.43457 145.046387 534.061401 178.692017 534.061401 C 212.337662 534.061401 239.707199 561.438293 239.707199 595.083923 C 239.707199 646.924316 202.540466 701.133057 178.692017 730.579834 Z"/><path id="path2" fill="#000000" stroke="none" d="M 618.965454 321.178619 C 626.033447 321.178619 633.101501 318.482544 638.493591 313.094086 C 642.445618 309.145721 735.279541 215.221558 735.279541 116.266174 C 735.279541 52.157166 683.100281 0 618.965454 0 C 554.852783 0 502.695618 52.157166 502.695618 116.262512 C 502.695618 215.214172 595.481689 309.138367 599.437439 313.0867 C 604.825867 318.482544 611.893799 321.178619 618.965454 321.178619 Z M 618.965454 55.247375 C 652.640564 55.247375 680.032227 82.620544 680.032227 116.262512 C 680.032227 168.106628 642.832336 222.322693 618.969177 251.765869 C 595.117065 222.322693 557.942932 168.110291 557.942932 116.262512 C 557.93927 82.620544 585.316223 55.247375 618.965454 55.247375 Z"/></g><path id="Line" fill="none" stroke="#ff3900" stroke-width="100" stroke-linecap="round" d="M 55.003937 748.003906 L 739.001343 58.001343"/></svg>