<svg xmlns="http://www.w3.org/2000/svg" viewBox="0 0 64 64" role="img" aria-label="Tokyo DisneySea icon (Mickey outline with wave)">
  <!-- Style: uses currentColor so you can set it via CSS -->
  <g fill="none" stroke="currentColor" stroke-width="3" stroke-linecap="round" stroke-linejoin="round">
    <!-- Mickey outline -->
    <circle cx="32" cy="34" r="18"/>
    <circle cx="18" cy="20" r="8"/>
    <circle cx="46" cy="20" r="8"/>

    <!-- Wave cut-in (drawn inside the head area) -->
    <path d="M16 40
             C20 36, 26 36, 30 40
             C34 44, 40 44, 44 40
             C47 37.5, 50 37, 52 38" />

    <path d="M16 46
             C20 42, 26 42, 30 46
             C34 50, 40 50, 44 46
             C47 43.5, 50 43, 52 44" />

    <!-- Small crest detail -->
    <path d="M24 35
             C25.5 33.8, 27.5 33.8, 29 35
             C27.5 36.2, 25.5 36.2, 24 35Z" />
  </g>
</svg>
