<?xml version="1.0" encoding="UTF-8"?>
<!-- Generated by Pixelmator Pro 3.7.1 -->
<svg width="218" height="218" viewBox="0 0 218 218" xmlns="http://www.w3.org/2000/svg">
    <path id="logotdlsvg" fill="#000000" stroke="none" d="M 159.950409 131.836365 L 159.950409 128.863647 C 160.942154 128.368179 161.933884 128.368179 162.925613 128.368179 C 164.909088 127.872726 167.388428 128.368179 168.876038 128.368179 C 170.363632 127.872726 171.851242 127.377274 172.842972 126.386368 C 168.380173 127.377274 165.900833 121.927277 162.429749 121.431808 C 161.438019 121.431808 159.950409 121.431808 158.958679 121.431808 L 158.958679 132.331818 C 157.966949 141.25 155.48761 150.168182 151.52066 158.095459 L 151.52066 137.781815 L 153.00827 135.800003 L 153.00827 130.845459 L 152.016525 130.845459 C 152.016525 130.845459 148.545456 125.890907 145.570251 105.081818 L 145.570251 105.081818 L 145.570251 101.118179 C 146.561981 100.622726 147.553711 100.622726 148.545456 100.127274 C 150.528931 99.631821 153.00827 100.622726 154.495865 100.127274 C 155.983475 99.631821 157.471069 99.136368 158.462814 98.145454 C 154 99.136368 151.52066 93.686371 148.049591 93.190895 C 147.057846 93.190895 145.570251 93.190895 144.578506 93.190895 L 144.578506 105.081818 L 144.578506 105.081818 C 141.603317 125.890907 138.628098 130.845459 138.628098 130.845459 L 137.636368 130.845459 L 137.636368 135.800003 L 139.619827 137.781815 L 139.619827 144.71817 L 134.661148 144.71817 L 134.661148 127.872726 L 137.636368 123.909096 L 137.636368 111.522728 L 141.107437 111.522728 C 138.132233 106.072716 136.148758 99.631821 135.157028 93.686371 C 135.157028 93.190895 135.157028 93.190895 134.661148 93.190895 C 134.165298 93.190895 134.165298 93.686371 134.165298 93.686371 C 133.173553 99.136368 131.685959 104.586365 129.206619 109.540916 L 129.206619 93.190895 L 131.190079 89.22728 L 131.190079 85.759094 L 128.214874 85.759094 L 128.214874 78.327271 L 131.190079 78.327271 C 125.23967 69.409088 120.280991 29.277267 120.280991 24.818176 L 120.280991 20.854538 C 121.272728 20.35907 121.7686 20.35907 122.76033 19.863632 C 127.223137 19.368179 129.206619 24.818176 135.157028 21.349991 C 132.677689 20.854538 130.198349 18.872711 128.710739 16.890915 C 130.694214 16.395447 132.677689 15.404526 133.669418 13.422729 C 131.685959 13.422729 129.702469 13.422729 127.719009 12.431808 C 126.231407 10.94545 124.24794 9.954544 122.264458 9.459091 C 121.272728 9.459091 119.785118 9.459091 118.793388 9.459091 L 118.793388 24.322723 C 118.793388 28.781815 113.834709 68.913635 107.884293 77.831818 L 110.859505 77.831818 L 110.859505 85.263641 L 107.388428 85.263641 L 107.388428 88.731812 L 109.371902 92.69545 L 109.371902 120.44091 L 104.413223 101.118179 L 86.066116 101.118179 L 80.1157 128.863647 C 78.628098 122.918182 77.140495 117.468178 75.652885 111.522728 C 75.652885 111.027275 75.157021 111.027275 74.661156 111.027275 C 74.165291 111.027275 74.165291 111.522728 74.165291 111.522728 C 72.677689 120.936363 70.198349 129.854523 65.735535 138.277283 L 67.719009 138.277283 L 67.719009 142.240906 L 69.702477 145.709091 L 69.702477 151.654541 L 64.743797 151.654541 C 60.776859 144.71817 57.305786 137.286362 54.826443 129.854523 L 54.826443 127.377274 C 55.818184 126.881821 56.809917 126.881821 57.801651 126.386368 C 59.785122 125.890907 62.264462 126.881821 63.752068 126.386368 C 65.23967 125.890907 66.727272 125.395454 67.719009 124.404549 C 63.256195 125.395454 60.776859 119.94545 57.305786 119.450005 C 56.314049 119.450005 54.826443 119.450005 53.834709 119.450005 L 53.834709 129.3591 C 51.851238 137.781815 48.876034 145.709091 43.917355 153.1409 L 48.876034 153.1409 L 48.876034 165.527267 L 41.933884 165.527267 L 41.933884 174.940918 C 41.933884 174.940918 43.917355 174.44545 45.404961 177.913635 C 46.892563 181.381821 38.958679 209.622742 38.958679 209.622742 L 175.818176 209.622742 C 170.859512 193.768188 168.876038 179.399994 169.867767 176.922729 C 170.363632 175.931808 171.355377 174.940918 172.842972 174.940918 L 172.842972 165.527267 L 165.900833 165.527267 L 165.900833 160.572723 L 169.371902 160.572723 C 164.909088 151.654541 161.438019 141.745453 159.950409 131.836365 Z M 411.355377 132.827271"/>
</svg>
